<svg xmlns="http://www.w3.org/2000/svg" height="16" width="16" fill="white" viewBox="0 0 24 24">
  <path d="M12 2C6.48 2 2 6.48 2 12c0 1.65.49 3.18 1.32 4.46L2 22l5.34-1.32C8.84 21.51 10.38 22 12 22c5.52 0 10-4.48 10-10S17.52 2 12 2zm4.88 12.09c-.31 0-.63-.05-.93-.14-.42-.12-.76-.35-1.05-.66-.5-.49-.74-1.18-.66-1.86.12-.91.28-1.92.48-2.76.1-.29.12-.61.07-.91-.03-.3-.18-.57-.42-.75l-1.49-1.3c-.34-.29-.8-.36-1.18-.21-.6.22-1.24.47-1.89.73-.1-.27-.25-.53-.42-.79-.14-.22-.3-.43-.46-.64-.32-.44-.69-.87-1.1-1.29-.33-.35-.74-.61-1.17-.81-.52-.26-1.11-.42-1.68-.57-.69-.19-1.39-.31-2.09-.44-.31-.04-.61.05-.89.23-.62.32-.98.97-.98 1.64 0 .34.07.67.19.97.21.55.47 1.06.79 1.56.14.24.3.48.48.7-.53-.08-1.07-.21-1.58-.39-.09.12-.19.23-.3.35-.13.13-.27.25-.41.36-.23.17-.47.33-.71.49-.52.35-1.04.69-1.57 1.03-.06-.02-.12-.04-.18-.06-.57.43-1.14.91-1.69 1.41-.35-.58-.58-1.21-.68-1.87-.03-.22-.05-.44-.06-.66 1.04-.6 2.21-.96 3.41-1.14-.02-.3-.05-.61-.05-.91 0-1.73.7-3.34 1.83-4.49 1.14-1.14 2.73-1.83 4.49-1.83 1.68 0 3.23.55 4.5 1.58 1.41 1.19 2.5 2.85 3.06 4.66.31.85.55 1.73.71 2.63-.04.27-.11.54-.22.79-.22.49-.48.96-.78 1.4-.29.41-.63.78-.98 1.13-.37.35-.79.67-1.23.97-.62.42-1.26.76-1.9 1.06z"/>
</svg>
